<svg xmlns="http://www.w3.org/2000/svg" width="855.05" height="1075.244" viewBox="0 0 855.05 1075.244">
  <g id="SiksaPath_saas_logo" data-name="SiksaPath saas logo" transform="translate(0.01 0.004)">
    <g id="app_icon" data-name="app icon" transform="translate(12.386)">
      <path id="Path_12" data-name="Path 12" d="M271.95,659.55c42.35-21.97,90.4-20.32,131.33,3.6a3.721,3.721,0,0,0,3.91,0,3.805,3.805,0,0,0,1.96-3.37V560.91a3.65,3.65,0,0,0-1.05-2.66,173.837,173.837,0,0,0-197.43-39,3.932,3.932,0,0,0-1.98,5.13l57.88,133.26a3.878,3.878,0,0,0,2.3,2.15,3.8,3.8,0,0,0,3.09-.23h0Zm286.13,0h0c-42.35-21.97-90.42-20.32-131.33,3.6a3.721,3.721,0,0,1-3.91,0,3.805,3.805,0,0,1-1.96-3.37V560.91a3.56,3.56,0,0,1,1.08-2.66,173.782,173.782,0,0,1,197.4-39,3.923,3.923,0,0,1,1.98,5.13L563.46,657.64a3.908,3.908,0,0,1-2.27,2.15,3.855,3.855,0,0,1-3.12-.23h0Z" fill="#56cc99" fill-rule="evenodd"/>
      <path id="Path_13" data-name="Path 13" d="M437.47,695.12c33.19-28.8,78.63-22.76,115.6-5.07a3.922,3.922,0,0,0,5.58-3.52V675.45a3.836,3.836,0,0,0-2.01-3.43c-42.97-24.15-92.75-21.09-133.26,7.14-3.66,2.58-13.04,2.58-16.72,0-40.51-28.23-90.25-31.29-133.26-7.14a3.874,3.874,0,0,0-2.01,3.43v11.08a3.713,3.713,0,0,0,1.84,3.29,3.817,3.817,0,0,0,3.77.23c36.94-17.69,82.38-23.73,115.57,5.07.03.03.09.06.11.08a35.8,35.8,0,0,0,44.67,0,.763.763,0,0,1,.11-.08h0Z" fill="#215679" fill-rule="evenodd"/>
      <path id="Path_14" data-name="Path 14" d="M570.7,670.29l46.38-106.81a3.9,3.9,0,0,1,7.48,1.56v35.04a3.885,3.885,0,0,1-.45,1.87l-46.4,85.18a3.885,3.885,0,0,1-7.31-1.87V671.85a3.6,3.6,0,0,1,.31-1.56h0Z" fill="#215679" fill-rule="evenodd"/>
      <path id="Path_15" data-name="Path 15" d="M259.34,670.29,212.97,563.48a3.907,3.907,0,0,0-7.49,1.56v35.04a3.6,3.6,0,0,0,.48,1.87l46.37,85.18a3.9,3.9,0,0,0,7.34-1.87V671.85a3.622,3.622,0,0,0-.34-1.56h0Z" fill="#215679" fill-rule="evenodd"/>
      <path id="Path_16" data-name="Path 16" d="M62.56,180.26Q289.57,307.055,372.73,7.32a9.988,9.988,0,0,1,19.61,2.49C396.03,253.73,265.4,475.46,61.65,593.75a10,10,0,0,1-12.08-15.73q100.515-100.05,83.14-214.53a4.987,4.987,0,0,1,2.78-5.24,4.936,4.936,0,0,1,5.81,1.08q20.235,21.435,39.91,43.43a5.012,5.012,0,0,0,8.39-5.18c-29.76-75.6-73.39-130.22-139.72-202.31-7.4-8.05,3.12-20.32,12.67-15h0Z" fill="#215679" fill-rule="evenodd"/>
      <path id="Path_17" data-name="Path 17" d="M249.39,143.67a54.723,54.723,0,1,1-12.81-76.31,54.721,54.721,0,0,1,12.81,76.31Z" fill="#215679" fill-rule="evenodd"/>
      <path id="Path_18" data-name="Path 18" d="M767.48,180.26Q540.47,307.055,457.34,7.32A10.005,10.005,0,0,0,437.7,9.81c-3.68,243.92,126.94,465.65,330.69,583.94a10,10,0,0,0,12.08-15.73Q679.955,477.97,697.33,363.49a4.987,4.987,0,0,0-2.78-5.24,4.889,4.889,0,0,0-5.78,1.08q-20.235,21.435-39.94,43.43a5.009,5.009,0,0,1-6.35.91,4.947,4.947,0,0,1-2.01-6.09c29.74-75.6,73.39-130.22,139.69-202.31,7.4-8.05-3.12-20.32-12.67-15h0Z" fill="#215679" fill-rule="evenodd"/>
      <path id="Path_19" data-name="Path 19" d="M580.65,143.67a39.231,39.231,0,1,1,.01,0h0Z" fill="#215679" fill-rule="evenodd"/>
      <path id="Path_20" data-name="Path 20" d="M422.47,314.14l16.07,49.78a7.7,7.7,0,0,0,7.46,5.41l52.36-.08a7.827,7.827,0,0,1,4.59,14.17l-42.38,30.67a7.737,7.737,0,0,0-2.86,8.79l16.27,49.75a7.836,7.836,0,0,1-12.07,8.76l-42.26-30.84a7.74,7.74,0,0,0-9.24,0l-42.26,30.84a7.823,7.823,0,0,1-12.05-8.76l16.24-49.75a7.751,7.751,0,0,0-2.86-8.79L327.1,383.42a7.827,7.827,0,0,1,4.6-14.17l52.36.08a7.708,7.708,0,0,0,7.46-5.41l16.07-49.78a7.835,7.835,0,0,1,14.92,0h0Z" fill="#56cc99" fill-rule="evenodd"/>
      <path id="Path_21" data-name="Path 21" d="M335.97,596.31a1.827,1.827,0,0,1,.12.75,4.634,4.634,0,0,1-1.13,2.26,13.964,13.964,0,0,1-1.63,1.63,17.464,17.464,0,0,1-3.38,2.26,27.459,27.459,0,0,1-5.2,2.01,26.586,26.586,0,0,1-7.21.88,12.942,12.942,0,0,1-5.64-1.32,14.329,14.329,0,0,1-4.89-3.89,21.13,21.13,0,0,1-3.51-6.39,26.361,26.361,0,0,1-1.38-8.96,31.633,31.633,0,0,1,1.25-9.15,32.122,32.122,0,0,1,3.2-7.52,18.7,18.7,0,0,1,4.32-5.14,7.569,7.569,0,0,1,4.64-1.88,11.092,11.092,0,0,1,4.07.81,16.085,16.085,0,0,1,3.76,2.07,10.829,10.829,0,0,1,2.69,2.82,5.866,5.866,0,0,1,1,3.2,6.086,6.086,0,0,1-1.69,3.88,22.085,22.085,0,0,1-4.07,3.7,28.206,28.206,0,0,1-4.76,2.76,10.033,10.033,0,0,1-3.76,1.07,1.679,1.679,0,0,1-1.32-.69,2.553,2.553,0,0,1-.56-1.69,3.114,3.114,0,0,1,1.57-2.76,24.314,24.314,0,0,1,3.45-1.82,18.628,18.628,0,0,0,3.45-1.94,3.658,3.658,0,0,0,1.57-3.13,3.884,3.884,0,0,0-.63-1.25c-.42-.67-1.55-1-3.38-1a4.644,4.644,0,0,0-2.88,1.44,17.111,17.111,0,0,0-3.13,3.88,24.905,24.905,0,0,0-3.51,12.97,14.183,14.183,0,0,0,1.19,5.89,14.337,14.337,0,0,0,3.07,4.45,13.341,13.341,0,0,0,4.39,2.82,13.67,13.67,0,0,0,5.14,1,11.8,11.8,0,0,0,4.07-.81c1.46-.54,2.84-1.13,4.14-1.75s2.42-1.21,3.38-1.75a5.821,5.821,0,0,1,1.82-.81,1.3,1.3,0,0,1,.81.38,1.75,1.75,0,0,1,.56.75Z" fill="#fff"/>
      <path id="Path_22" data-name="Path 22" d="M523.15,593.18q0,5.64-2,8.84a21.384,21.384,0,0,1-5.89,5.95q-1,.63-2.76,1.5a33,33,0,0,1-3.89,1.63,34.924,34.924,0,0,1-4.51,1.25,21.725,21.725,0,0,1-4.39.5,23.463,23.463,0,0,1-8.52-1.19q-2.88-1.185-2.88-2.82a4.157,4.157,0,0,1,1-2.88,3.426,3.426,0,0,1,1.75-1.25l1.38,1a9.544,9.544,0,0,0,1.75,1.32,7.219,7.219,0,0,0,3.63.69,24.856,24.856,0,0,0,5.76-.82,25.478,25.478,0,0,0,6.45-2.51,19.258,19.258,0,0,0,5.26-4.2,8.5,8.5,0,0,0,2.19-5.76q0-2.88-4.32-5.33t-13.6-3.32q-4.77-.375-9.4-1.19a42.843,42.843,0,0,1-8.33-2.26,17.485,17.485,0,0,1-5.95-3.63,7.31,7.31,0,0,1-2.26-5.45,11.227,11.227,0,0,1,1.75-6.02,26.168,26.168,0,0,1,4.32-5.33,41.672,41.672,0,0,1,5.33-4.32c1.84-1.25,3.38-2.3,4.64-3.13,1-.58,2.4-1.36,4.2-2.32s3.72-1.88,5.76-2.76a60.856,60.856,0,0,1,6.14-2.26,18.226,18.226,0,0,1,5.2-.94c1.67,0,2.8.46,3.38,1.38a7.26,7.26,0,0,1,.88,3.88,22.149,22.149,0,0,1-.5,4.51c-.33,1.59-.71,3.13-1.13,4.64s-.81,2.82-1.19,3.95a20.24,20.24,0,0,1-.82,2.19,3.166,3.166,0,0,1-1.13,1.5,2.221,2.221,0,0,1-.88.38c-.33,0-.5-.21-.5-.63a9.638,9.638,0,0,1,.19-1.44c.13-.71.29-1.57.5-2.57a31.587,31.587,0,0,0,.5-3.26,34.4,34.4,0,0,0,.19-3.51,22.461,22.461,0,0,0-.25-4.01c-.17-.83-.84-1.25-2.01-1.25a16.891,16.891,0,0,0-4.76.94,59.994,59.994,0,0,0-6.14,2.32,34.479,34.479,0,0,0-6.58,3.88,52.211,52.211,0,0,0-5.7,4.89,32.841,32.841,0,0,0-4.07,4.83,7.457,7.457,0,0,0-1.57,3.7q0,1.5,2.07,2.82a22.221,22.221,0,0,0,5.26,2.32,64.319,64.319,0,0,0,7.08,1.75q3.885.75,7.65,1.13,3.135.375,6.89,1a31.2,31.2,0,0,1,7.02,2.01,16.538,16.538,0,0,1,5.51,3.7,8.2,8.2,0,0,1,2.26,5.95Z" fill="#fff"/>
    </g>
    <g id="text" transform="translate(0)">
      <g id="siksapath">
        <path id="Path_23" data-name="Path 23" d="M118.13,903.84q0,5.67-4.96,5.67H37.8v.47a38.954,38.954,0,0,0,1.18,9.6A21.087,21.087,0,0,0,43,927.77a20.088,20.088,0,0,0,7.44,5.62,28.1,28.1,0,0,0,11.69,2.11q5.67,0,12.05-.24t12.64-.47q6.255-.24,11.7-.59c3.62-.24,6.62-.51,8.98-.83h.71c2.99,0,4.49,1.27,4.49,3.79v18.09a7.8,7.8,0,0,1-.95,4.28c-.63.95-1.97,1.67-4.02,2.14a193.448,193.448,0,0,1-22.21,4.28,205.728,205.728,0,0,1-26.23,1.43,76.5,76.5,0,0,1-21.26-3.07,52.027,52.027,0,0,1-19.14-10.16,50.794,50.794,0,0,1-13.7-18.78q-5.205-11.7-5.2-28.71V890.12a78.116,78.116,0,0,1,4.02-25.75A53.246,53.246,0,0,1,15.7,844.76a51.874,51.874,0,0,1,18.78-12.4,68.675,68.675,0,0,1,25.28-4.37,64.564,64.564,0,0,1,25.4,4.72,50.856,50.856,0,0,1,18.31,13,54.518,54.518,0,0,1,10.99,19.61,80.4,80.4,0,0,1,3.66,24.81v13.7ZM80.8,884.94q0-13.23-5.67-19.73t-15.59-6.5q-9.915,0-15.83,6.62T37.8,884.94v.94h43v-.94Z" fill="#212121"/>
        <path id="Path_24" data-name="Path 24" d="M257.76,915.65a54.826,54.826,0,0,1-3.31,18.67,42.684,42.684,0,0,1-10.99,16.54q-7.68,7.32-19.96,11.93t-30.24,4.61a192.124,192.124,0,0,1-24.93-1.42,159.91,159.91,0,0,1-19.73-3.78,8.134,8.134,0,0,1-3.31-1.65,3.8,3.8,0,0,1-1.42-3.07V934.33c0-1.73.39-2.91,1.18-3.54a4.769,4.769,0,0,1,3.07-.95h.71c2.36.32,5.63.63,9.8.95s8.46.59,12.88.83,8.62.47,12.64.71,7.21.35,9.57.35q12.285,0,16.66-4.02t4.37-12.52a13.017,13.017,0,0,0-3.19-8.86q-3.2-3.66-12.4-9.1l-32.6-19.37a73.321,73.321,0,0,1-13.59-10.16,48.778,48.778,0,0,1-8.51-10.87,41.7,41.7,0,0,1-4.49-11.7,58.434,58.434,0,0,1-1.3-12.4,53.973,53.973,0,0,1,2.95-18.07,34.864,34.864,0,0,1,10.04-14.65q7.095-6.255,18.67-9.8t28.82-3.54q6.375,0,13.82.47t14.29,1.18c4.57.47,8.82,1.03,12.76,1.65a82.751,82.751,0,0,1,9.21,1.89,7.083,7.083,0,0,1,2.48,1.42,3.594,3.594,0,0,1,1.06,2.83v23.86a4.855,4.855,0,0,1-.83,2.84c-.55.79-1.62,1.18-3.19,1.18h-.47q-2.595-.225-8.39-.59t-13.11-.83c-4.88-.31-9.89-.59-15-.83s-9.65-.35-13.58-.35q-10.155,0-14.29,3.07t-4.13,9.45a12.86,12.86,0,0,0,.71,4.49,10.385,10.385,0,0,0,2.48,3.66,30.5,30.5,0,0,0,4.84,3.78q3.06,2.01,7.8,4.61l30.24,16.3q18.435,9.93,25.16,21.74a52.031,52.031,0,0,1,6.73,26.23Z" fill="#212121"/>
        <path id="Path_25" data-name="Path 25" d="M369.75,958.42a4.766,4.766,0,0,1-1.18,3.66,9.376,9.376,0,0,1-3.78,1.77q-4.965,1.185-12.88,2.36a127.026,127.026,0,0,1-18.55,1.18q-25.05,0-40.05-15.36t-15-44.42V887.76q0-29.055,15-44.42t40.05-15.36a127.026,127.026,0,0,1,18.55,1.18q7.92,1.185,12.88,2.36a9.376,9.376,0,0,1,3.78,1.77,4.743,4.743,0,0,1,1.18,3.66v21.03a3.619,3.619,0,0,1-1.3,2.95,4.872,4.872,0,0,1-3.19,1.06h-.47q-6.615-.7-12.64-1.18t-16.18-.47a21.914,21.914,0,0,0-7.56,1.3,14.139,14.139,0,0,0-6.14,4.49,23.825,23.825,0,0,0-4.13,8.5,47.661,47.661,0,0,0-1.54,13.11v19.85a47.611,47.611,0,0,0,1.54,13.11,23.878,23.878,0,0,0,4.13,8.51,14.139,14.139,0,0,0,6.14,4.49,21.681,21.681,0,0,0,7.56,1.3q10.155,0,16.18-.47t12.64-1.18h.47a4.872,4.872,0,0,1,3.19,1.06,3.619,3.619,0,0,1,1.3,2.95v21.03Z" fill="#212121"/>
        <path id="Path_26" data-name="Path 26" d="M510.09,960.31a5.289,5.289,0,0,1-4.97,4.97H476.53a4.392,4.392,0,0,1-3.31-1.53,4.893,4.893,0,0,1-1.42-3.42v-78.5a64.492,64.492,0,0,0-.71-10.37,15.831,15.831,0,0,0-2.6-6.83,10.018,10.018,0,0,0-5.32-3.66,30.588,30.588,0,0,0-8.86-1.06,28.572,28.572,0,0,0-10.63,2.12,106.292,106.292,0,0,0-11.58,5.42v92.88a4.893,4.893,0,0,1-1.42,3.42,4.392,4.392,0,0,1-3.31,1.53H398.78a5.289,5.289,0,0,1-4.97-4.97V788.78a4.853,4.853,0,0,1,4.73-4.73h28.82a4.853,4.853,0,0,1,4.73,4.73V838.7a63.4,63.4,0,0,1,17.25-8.33,68.283,68.283,0,0,1,18.9-2.38q12.765,0,20.91,4.25a32.862,32.862,0,0,1,12.76,11.46,46.723,46.723,0,0,1,6.38,17.01,117.735,117.735,0,0,1,1.77,20.91V960.3Z" fill="#212121"/>
        <path id="Path_27" data-name="Path 27" d="M653.27,905.97a77.919,77.919,0,0,1-3.91,25.52A52.794,52.794,0,0,1,638,950.75a50.643,50.643,0,0,1-18.47,12.29q-11.01,4.365-25.45,4.37t-25.45-4.37a50.208,50.208,0,0,1-30.06-31.55,77.919,77.919,0,0,1-3.91-25.52V889.43a77.919,77.919,0,0,1,3.91-25.52,50.224,50.224,0,0,1,30.06-31.54q11.01-4.365,25.45-4.37t25.45,4.37A50.728,50.728,0,0,1,638,844.66a52.7,52.7,0,0,1,11.36,19.25,78.185,78.185,0,0,1,3.91,25.52ZM615,889.43q0-28.815-20.91-28.82-10.335,0-15.74,7.21t-5.41,21.62v16.54q0,14.415,5.41,21.74t15.74,7.32q20.91,0,20.91-29.06V889.44Z" fill="#212121"/>
        <path id="Path_28" data-name="Path 28" d="M792.43,905.97a77.919,77.919,0,0,1-3.91,25.52,52.794,52.794,0,0,1-11.36,19.26,50.643,50.643,0,0,1-18.47,12.29q-11.01,4.365-25.45,4.37t-25.45-4.37a50.208,50.208,0,0,1-30.06-31.55,77.919,77.919,0,0,1-3.91-25.52V889.43a77.919,77.919,0,0,1,3.91-25.52,50.224,50.224,0,0,1,30.06-31.54q11.01-4.365,25.45-4.37t25.45,4.37a50.728,50.728,0,0,1,18.47,12.29,52.7,52.7,0,0,1,11.36,19.25,78.185,78.185,0,0,1,3.91,25.52Zm-38.27-16.54q0-28.815-20.91-28.82-10.335,0-15.74,7.21t-5.41,21.62v16.54q0,14.415,5.41,21.74t15.74,7.32q20.91,0,20.91-29.06V889.44Z" fill="#212121"/>
        <path id="Path_29" data-name="Path 29" d="M855.04,960.31a5.228,5.228,0,0,1-1.3,3.43,4.016,4.016,0,0,1-3.19,1.54H821.73a5.289,5.289,0,0,1-4.97-4.97V788.78a4.369,4.369,0,0,1,1.54-3.31,4.942,4.942,0,0,1,3.43-1.42h28.82a4.152,4.152,0,0,1,3.19,1.42,4.784,4.784,0,0,1,1.3,3.31V960.31Z" fill="#212121"/>
      </g>
      <g id="saas_version" data-name="saas version">
        <path id="Path_30" data-name="Path 30" d="M174.84,1060.12a18.664,18.664,0,0,1-.83,5.44,12.205,12.205,0,0,1-2.91,4.88,14.824,14.824,0,0,1-5.71,3.48,27.384,27.384,0,0,1-9.23,1.32,62.87,62.87,0,0,1-7.03-.34q-3.03-.345-5.52-.72a1.969,1.969,0,0,1-1.21-.45,1.5,1.5,0,0,1-.23-.91v-3.02a1.078,1.078,0,0,1,.38-.91,1.4,1.4,0,0,1,.91-.3h.23c.86.1,1.83.18,2.91.23s2.19.09,3.33.11,2.24.05,3.33.08,2.05.04,2.91.04a20.621,20.621,0,0,0,5.63-.64,8.662,8.662,0,0,0,3.52-1.82,6.361,6.361,0,0,0,1.81-2.83,12.015,12.015,0,0,0,.53-3.63,7.22,7.22,0,0,0-.45-2.61,7.386,7.386,0,0,0-1.51-2.31,18.829,18.829,0,0,0-2.8-2.38q-1.74-1.245-4.31-2.84l-7.33-4.46a30.431,30.431,0,0,1-7.83-6.39,11.906,11.906,0,0,1-2.61-7.75q0-6.885,4.73-10.13t13.42-3.25c1.11,0,2.28.03,3.52.08s2.44.11,3.63.19,2.31.18,3.36.3,1.94.24,2.65.34q1.29.225,1.29,1.29v3.25c0,.81-.43,1.21-1.29,1.21h-.15q-2.49-.15-6.09-.3t-6.92-.15q-5.895,0-8.51,1.51t-2.61,5.67a6.3,6.3,0,0,0,1.96,4.61,33.524,33.524,0,0,0,6.26,4.54l6.94,4.16a50.765,50.765,0,0,1,5.5,3.78,22.74,22.74,0,0,1,3.69,3.63,11.853,11.853,0,0,1,2.04,3.78,14.417,14.417,0,0,1,.6,4.23Z" fill="#212121"/>
        <path id="Path_31" data-name="Path 31" d="M230.5,1073.5c0,.81-.43,1.21-1.29,1.21h-4.46a1.043,1.043,0,0,1-.83-.34,2.289,2.289,0,0,1-.45-.79l-4.92-17.39H198.97l-4.84,17.39a1.815,1.815,0,0,1-.53.79,1.2,1.2,0,0,1-.83.34h-4.46c-.86,0-1.29-.4-1.29-1.21a1.144,1.144,0,0,1,.08-.53l13.99-49.23a7.639,7.639,0,0,1,1.32-2.84,7.316,7.316,0,0,1,1.93-1.74,7.545,7.545,0,0,1,2.23-.91,9.867,9.867,0,0,1,2.23-.26,11.173,11.173,0,0,1,2.19.23,6.607,6.607,0,0,1,2.19.87,7.315,7.315,0,0,1,1.93,1.74,7.588,7.588,0,0,1,1.32,2.83l13.99,49.3a1.3,1.3,0,0,1,.08.53Zm-20.27-48.17c-.25-.91-.73-1.36-1.44-1.36-.76,0-1.26.45-1.51,1.36l-6.88,24.88h16.71l-6.88-24.88Z" fill="#212121"/>
        <path id="Path_32" data-name="Path 32" d="M285.92,1073.5c0,.81-.43,1.21-1.29,1.21h-4.46a1.043,1.043,0,0,1-.83-.34,2.289,2.289,0,0,1-.45-.79l-4.92-17.39H254.39l-4.84,17.39a1.815,1.815,0,0,1-.53.79,1.2,1.2,0,0,1-.83.34h-4.46c-.86,0-1.29-.4-1.29-1.21a1.144,1.144,0,0,1,.08-.53l13.99-49.23a7.638,7.638,0,0,1,1.32-2.84,7.316,7.316,0,0,1,1.93-1.74,7.545,7.545,0,0,1,2.23-.91,9.867,9.867,0,0,1,2.23-.26,11.173,11.173,0,0,1,2.19.23,6.607,6.607,0,0,1,2.19.87,7.316,7.316,0,0,1,1.93,1.74,7.588,7.588,0,0,1,1.32,2.83l13.99,49.3a1.3,1.3,0,0,1,.08.53Zm-20.27-48.17c-.25-.91-.73-1.36-1.44-1.36-.76,0-1.26.45-1.51,1.36l-6.88,24.88h16.71l-6.88-24.88Z" fill="#212121"/>
        <path id="Path_33" data-name="Path 33" d="M332.28,1060.12a18.664,18.664,0,0,1-.83,5.44,12.205,12.205,0,0,1-2.91,4.88,14.825,14.825,0,0,1-5.71,3.48,27.384,27.384,0,0,1-9.23,1.32,62.87,62.87,0,0,1-7.03-.34q-3.03-.345-5.52-.72a1.969,1.969,0,0,1-1.21-.45,1.5,1.5,0,0,1-.23-.91v-3.02a1.078,1.078,0,0,1,.38-.91,1.4,1.4,0,0,1,.91-.3h.23c.86.1,1.83.18,2.91.23s2.19.09,3.33.11,2.24.05,3.33.08,2.05.04,2.91.04a20.621,20.621,0,0,0,5.63-.64,8.662,8.662,0,0,0,3.52-1.82,6.361,6.361,0,0,0,1.81-2.83,12.015,12.015,0,0,0,.53-3.63,7.219,7.219,0,0,0-.45-2.61,7.385,7.385,0,0,0-1.51-2.31,18.829,18.829,0,0,0-2.8-2.38q-1.74-1.245-4.31-2.84l-7.33-4.46a30.431,30.431,0,0,1-7.83-6.39,11.906,11.906,0,0,1-2.61-7.75q0-6.885,4.73-10.13t13.42-3.25c1.11,0,2.28.03,3.52.08s2.44.11,3.63.19,2.31.18,3.36.3,1.94.24,2.65.34q1.29.225,1.29,1.29v3.25c0,.81-.43,1.21-1.29,1.21h-.15q-2.49-.15-6.09-.3t-6.92-.15q-5.895,0-8.51,1.51t-2.61,5.67a6.3,6.3,0,0,0,1.96,4.61,33.524,33.524,0,0,0,6.26,4.54l6.94,4.16a50.765,50.765,0,0,1,5.5,3.78,22.74,22.74,0,0,1,3.69,3.63,11.853,11.853,0,0,1,2.04,3.78,14.417,14.417,0,0,1,.6,4.23Z" fill="#212121"/>
        <path id="Path_34" data-name="Path 34" d="M415.91,1019.81a1.241,1.241,0,0,1-.07.45l-13.91,49.23a8.4,8.4,0,0,1-1.4,2.91,7.669,7.669,0,0,1-1.89,1.74,6.284,6.284,0,0,1-2.19.87,11.894,11.894,0,0,1-2.23.23,11.247,11.247,0,0,1-2.19-.23,6.692,6.692,0,0,1-2.19-.87,7.317,7.317,0,0,1-1.93-1.74,8.4,8.4,0,0,1-1.4-2.91l-13.99-49.23a1.034,1.034,0,0,1-.08-.45,1.235,1.235,0,0,1,.38-.95,1.393,1.393,0,0,1,.98-.34h4.38a1.2,1.2,0,0,1,.83.34,1.874,1.874,0,0,1,.53.79l13.16,48.17c.3,1.06.8,1.59,1.51,1.59q.975,0,1.44-1.59l13.23-48.17a1.916,1.916,0,0,1,.49-.79,1.076,1.076,0,0,1,.79-.34h4.46a1.14,1.14,0,0,1,1.29,1.29Z" fill="#212121"/>
        <path id="Path_35" data-name="Path 35" d="M461.58,1073.8a1.224,1.224,0,0,1-.19.68.853.853,0,0,1-.57.38,26.365,26.365,0,0,1-2.87.19c-1.21.03-2.51.06-3.89.11s-2.79.08-4.2.08h-3.78q-8.01,0-12.06-3.25t-4.04-10.81v-29.11q0-7.56,4.04-10.81t12.06-3.25c1.11,0,2.36.01,3.74.04s2.76.05,4.12.08,2.65.08,3.86.15,2.22.14,3.02.19a.853.853,0,0,1,.57.38,1.312,1.312,0,0,1,.19.68v3.78c0,.61-.28.91-.83.91H446.16a22.28,22.28,0,0,0-4.84.42,5.884,5.884,0,0,0-2.8,1.36,4.68,4.68,0,0,0-1.32,2.46,16.588,16.588,0,0,0-.34,3.63v10.51h23.21a1.461,1.461,0,0,1,1.06.45,1.434,1.434,0,0,1,.45,1.04v2.84a1.439,1.439,0,0,1-.45,1.05,1.461,1.461,0,0,1-1.06.45H436.86v12.75a16.575,16.575,0,0,0,.34,3.68,4.809,4.809,0,0,0,1.32,2.43,5.845,5.845,0,0,0,2.8,1.37,22.28,22.28,0,0,0,4.84.42h14.59c.55,0,.83.3.83.91v3.86Z" fill="#212121"/>
        <path id="Path_36" data-name="Path 36" d="M517.61,1073.73a.865.865,0,0,1-.98.98h-4.84a4.668,4.668,0,0,1-1.1-.11,1.776,1.776,0,0,1-.87-.87l-13.54-22.53h-1.97c-1.26,0-2.46-.01-3.59-.04s-2.71-.09-4.73-.19v22.23a1.621,1.621,0,0,1-.38,1.06,1.219,1.219,0,0,1-.98.45h-4.08a1.219,1.219,0,0,1-.98-.45,1.6,1.6,0,0,1-.38-1.06v-52.93a1.483,1.483,0,0,1,.38-1.17,2.791,2.791,0,0,1,1.44-.49c.81-.1,1.75-.19,2.84-.26s2.22-.14,3.4-.19,2.38-.09,3.59-.11,2.37-.04,3.48-.04a40.372,40.372,0,0,1,8.36.83,19.335,19.335,0,0,1,6.73,2.72,13.268,13.268,0,0,1,4.46,4.99,16.538,16.538,0,0,1,1.63,7.71v.53a17.512,17.512,0,0,1-.87,5.71,13.684,13.684,0,0,1-2.46,4.42,14.539,14.539,0,0,1-3.78,3.18,19.1,19.1,0,0,1-4.76,1.97l13.76,22.99a1.373,1.373,0,0,1,.23.68Zm-8.92-39.47q0-5.67-3.63-7.86t-10.74-2.19h-2.04c-.76,0-1.53.01-2.31.04s-1.53.05-2.23.08-1.29.06-1.74.11v20.72c1.66.05,3.25.09,4.76.11s2.7.04,3.55.04a34.257,34.257,0,0,0,6.16-.49,11.878,11.878,0,0,0,4.5-1.7,7.817,7.817,0,0,0,2.76-3.21,11.975,11.975,0,0,0,.94-5.1v-.53Z" fill="#212121"/>
        <path id="Path_37" data-name="Path 37" d="M565.93,1060.12a18.664,18.664,0,0,1-.83,5.44,11.982,11.982,0,0,1-2.91,4.88,14.822,14.822,0,0,1-5.71,3.48,27.361,27.361,0,0,1-9.22,1.32,62.871,62.871,0,0,1-7.03-.34q-3.03-.345-5.52-.72a1.969,1.969,0,0,1-1.21-.45,1.5,1.5,0,0,1-.23-.91v-3.02a1.107,1.107,0,0,1,.38-.91,1.4,1.4,0,0,1,.91-.3h.23c.86.1,1.83.18,2.91.23s2.19.09,3.33.11,2.24.05,3.33.08,2.05.04,2.91.04a20.621,20.621,0,0,0,5.63-.64,8.663,8.663,0,0,0,3.52-1.82,6.361,6.361,0,0,0,1.81-2.83,12.015,12.015,0,0,0,.53-3.63,7.22,7.22,0,0,0-.45-2.61,7.385,7.385,0,0,0-1.51-2.31,18.831,18.831,0,0,0-2.8-2.38q-1.74-1.245-4.31-2.84l-7.33-4.46a30.431,30.431,0,0,1-7.83-6.39,11.906,11.906,0,0,1-2.61-7.75q0-6.885,4.73-10.13t13.42-3.25c1.11,0,2.28.03,3.52.08s2.45.11,3.63.19,2.31.18,3.37.3,1.94.24,2.65.34q1.29.225,1.29,1.29v3.25c0,.81-.43,1.21-1.29,1.21h-.15q-2.49-.15-6.09-.3c-2.4-.1-4.7-.15-6.92-.15q-5.895,0-8.51,1.51t-2.61,5.67a6.3,6.3,0,0,0,1.96,4.61,33.524,33.524,0,0,0,6.26,4.54l6.94,4.16a50.768,50.768,0,0,1,5.5,3.78,22.74,22.74,0,0,1,3.69,3.63,11.658,11.658,0,0,1,2.04,3.78,14.416,14.416,0,0,1,.6,4.23Z" fill="#212121"/>
        <path id="Path_38" data-name="Path 38" d="M590.81,1073.2a1.621,1.621,0,0,1-.38,1.06,1.219,1.219,0,0,1-.98.45h-4.16a1.219,1.219,0,0,1-.98-.45,1.6,1.6,0,0,1-.38-1.06v-53.23a1.436,1.436,0,0,1,.38-1.02,1.256,1.256,0,0,1,.98-.42h4.16a1.256,1.256,0,0,1,.98.42,1.482,1.482,0,0,1,.38,1.02Z" fill="#212121"/>
        <path id="Path_39" data-name="Path 39" d="M650.54,1051.5a33.965,33.965,0,0,1-1.52,10.78,19.537,19.537,0,0,1-4.24,7.37,16.513,16.513,0,0,1-6.48,4.23,24.107,24.107,0,0,1-8.22,1.36,23.867,23.867,0,0,1-8.22-1.36,16.736,16.736,0,0,1-6.48-4.23,19.944,19.944,0,0,1-4.28-7.37,33.043,33.043,0,0,1-1.55-10.78v-9.75a33.25,33.25,0,0,1,1.55-10.77,19.863,19.863,0,0,1,4.28-7.37,16.513,16.513,0,0,1,6.48-4.23,24.108,24.108,0,0,1,8.22-1.36,23.868,23.868,0,0,1,8.22,1.36,16.736,16.736,0,0,1,6.48,4.23,19.615,19.615,0,0,1,4.24,7.37,33.9,33.9,0,0,1,1.52,10.77Zm-7.03-9.75a29.959,29.959,0,0,0-.94-8.09,14.812,14.812,0,0,0-2.68-5.44,9.965,9.965,0,0,0-4.22-3.06,16.863,16.863,0,0,0-11.16,0,10.209,10.209,0,0,0-4.26,3.06,14.614,14.614,0,0,0-2.71,5.44,30.011,30.011,0,0,0-.94,8.09v9.75a29.959,29.959,0,0,0,.94,8.09,14.812,14.812,0,0,0,2.68,5.44,9.964,9.964,0,0,0,4.26,3.06,15.928,15.928,0,0,0,5.62.95,15.411,15.411,0,0,0,5.58-.95,9.9,9.9,0,0,0,4.22-3.06,14.892,14.892,0,0,0,2.68-5.44,30.011,30.011,0,0,0,.94-8.09v-9.75Z" fill="#212121"/>
        <path id="Path_40" data-name="Path 40" d="M708.01,1072.52a2.114,2.114,0,0,1-.64,1.55,2.07,2.07,0,0,1-1.53.64H701.2a2.43,2.43,0,0,1-2.42-1.21l-23.37-44.39c-.1-.15-.18-.23-.23-.23s-.08.08-.08.23v44.16a1.482,1.482,0,0,1-.38,1.02,1.256,1.256,0,0,1-.98.42h-3.93a2.692,2.692,0,0,1-.98-.15c-.25-.1-.38-.35-.38-.76v-53.16a1.981,1.981,0,0,1,.64-1.51,2.21,2.21,0,0,1,1.55-.61h4.16a4.379,4.379,0,0,1,2.12.34,3.2,3.2,0,0,1,.98,1.17l23.21,44.16.15.23a.338.338,0,0,0,.08-.23v-44.24a1.474,1.474,0,0,1,.37-1.02,1.235,1.235,0,0,1,.97-.42h3.96a1.236,1.236,0,0,1,.97.42,1.482,1.482,0,0,1,.38,1.02v52.55Z" fill="#212121"/>
      </g>
    </g>
  </g>
</svg>
